<?xml version="1.0" encoding="UTF-8"?>
<svg height="128px" viewBox="0 0 128 128" width="128px" xmlns="http://www.w3.org/2000/svg">
    <path d="m 124.125 63.4375 c 0 32.816406 -26.59375 59.421875 -59.410156 59.4375 s -59.433594 -26.566406 -59.464844 -59.382812 c -0.03125 -32.8125 26.539062 -59.445313 59.351562 -59.492188 c 32.816407 -0.046875 59.460938 26.507812 59.523438 59.324219" fill="#008080"/>
    <path d="m 47.710938 82.929688 c 0 2.730468 -1.03125 5.054687 -3.089844 6.96875 c -2.050782 1.902343 -4.542969 2.851562 -7.472656 2.851562 h -4.207032 c -2.9375 0 -5.4375 -0.949219 -7.5 -2.851562 c -2.046875 -1.914063 -3.066406 -4.238282 -3.066406 -6.96875 v -3.910157 c 0 -2.726562 1.019531 -5.042969 3.066406 -6.945312 c 2.0625 -1.914063 4.5625 -2.875 7.5 -2.875 h 2.101563 c 1.398437 0 2.105469 -0.648438 2.105469 -1.953125 v -21.597656 c 0 -1.296876 -0.707032 -1.953126 -2.105469 -1.953126 c -1.402344 0 -2.101563 0.65625 -2.101563 1.953126 v 15.710937 c 0 1.089844 -0.414062 2.015625 -1.238281 2.78125 c -0.808594 0.753906 -1.804687 1.125 -2.992187 1.125 h -2.105469 c -1.1875 0 -2.195313 -0.371094 -3.019531 -1.125 c -0.808594 -0.765625 -1.210938 -1.691406 -1.210938 -2.78125 v -17.664063 c 0 -2.726562 1.019531 -5.042968 3.066406 -6.945312 c 2.0625 -1.914062 4.5625 -2.875 7.5 -2.875 h 4.207032 c 2.929687 0 5.421874 0.960938 7.472656 2.875 c 2.058594 1.902344 3.089844 4.21875 3.089844 6.945312 z m -10.5625 -1.953126 c 0 -1.300781 -0.707032 -1.957031 -2.105469 -1.957031 c -1.402344 0 -2.101563 0.65625 -2.101563 1.957031 c 0 1.304688 0.699219 1.953126 2.101563 1.953126 c 1.398437 0 2.105469 -0.648438 2.105469 -1.953126 z m 40.125 -19.617187 c 0 1.089844 -0.414063 2.015625 -1.234376 2.78125 c -0.8125 0.753906 -1.808593 1.125 -2.996093 1.125 h -2.101563 c -1.1875 0 -2.195312 -0.371094 -3.019531 -1.125 c -0.808594 -0.765625 -1.210937 -1.691406 -1.210937 -2.78125 v -15.710937 c 0 -1.296876 -0.707032 -1.953126 -2.105469 -1.953126 c -1.402344 0 -2.101563 0.65625 -2.101563 1.953126 v 43.167968 c 0 1.105469 -0.414062 2.042969 -1.238281 2.808594 c -0.808594 0.75 -1.804687 1.125 -2.992187 1.125 h -2.105469 c -1.1875 0 -2.195313 -0.375 -3.019531 -1.125 c -0.808594 -0.765625 -1.210938 -1.703125 -1.210938 -2.808594 v -45.121094 c 0 -2.726562 1.019531 -5.042968 3.066406 -6.945312 c 2.0625 -1.914062 4.5625 -2.875 7.5 -2.875 h 4.207032 c 2.929687 0 5.421874 0.960938 7.472656 2.875 c 2.058594 1.902344 3.089844 4.21875 3.089844 6.945312 z m 29.5625 27.457031 c 0 1.105469 -0.414063 2.042969 -1.234376 2.808594 c -0.8125 0.75 -1.808593 1.125 -2.996093 1.125 h -2.101563 c -1.1875 0 -2.195312 -0.375 -3.019531 -1.125 c -0.808594 -0.765625 -1.210937 -1.703125 -1.210937 -2.808594 v -7.839844 c 0 -1.300781 -0.707032 -1.957031 -2.105469 -1.957031 c -1.402344 0 -2.101563 0.65625 -2.101563 1.957031 v 7.839844 c 0 1.105469 -0.414062 2.042969 -1.238281 2.808594 c -0.808594 0.75 -1.804687 1.125 -2.992187 1.125 h -2.105469 c -1.1875 0 -2.195313 -0.375 -3.019531 -1.125 c -0.808594 -0.765625 -1.210938 -1.703125 -1.210938 -2.808594 v -51.007812 c 0 -1.105469 0.402344 -2.03125 1.210938 -2.785156 c 0.824218 -0.761719 1.832031 -1.148438 3.019531 -1.148438 h 2.105469 c 1.1875 0 2.183593 0.386719 2.992187 1.148438 c 0.824219 0.753906 1.238281 1.679687 1.238281 2.785156 v 29.4375 c 0 1.304687 0.699219 1.953125 2.101563 1.953125 c 1.398437 0 2.105469 -0.648438 2.105469 -1.953125 v -29.4375 c 0 -1.105469 0.402343 -2.03125 1.210937 -2.785156 c 0.824219 -0.761719 1.832031 -1.148438 3.019531 -1.148438 h 2.101563 c 1.1875 0 2.183593 0.386719 2.996093 1.148438 c 0.820313 0.753906 1.234376 1.679687 1.234376 2.785156 v 29.4375 c 0 2.667968 -1.011719 4.945312 -3.042969 6.828125 c 2.03125 1.933593 3.042969 4.234375 3.042969 6.902343 z m -84.460938 -70.636718" fill="#ffcc00"/>
</svg>
